<svg aria-roledescription="er" role="graphics-document document" viewBox="-134.7093734741211 0 437.30938720703125 478.18359375" style="max-width: 437.309px; background-color: white;" xmlns:xlink="http://www.w3.org/1999/xlink" xmlns="http://www.w3.org/2000/svg" width="100%" id="my-svg"><style>#my-svg{font-family:"trebuchet ms",verdana,arial,sans-serif;font-size:16px;fill:#000000;}#my-svg .error-icon{fill:#552222;}#my-svg .error-text{fill:#552222;stroke:#552222;}#my-svg .edge-thickness-normal{stroke-width:2px;}#my-svg .edge-thickness-thick{stroke-width:3.5px;}#my-svg .edge-pattern-solid{stroke-dasharray:0;}#my-svg .edge-pattern-dashed{stroke-dasharray:3;}#my-svg .edge-pattern-dotted{stroke-dasharray:2;}#my-svg .marker{fill:#000000;stroke:#000000;}#my-svg .marker.cross{stroke:#000000;}#my-svg svg{font-family:"trebuchet ms",verdana,arial,sans-serif;font-size:16px;}#my-svg .entityBox{fill:#cde498;stroke:#13540c;}#my-svg .attributeBoxOdd{fill:#ffffff;stroke:#13540c;}#my-svg .attributeBoxEven{fill:#f2f2f2;stroke:#13540c;}#my-svg .relationshipLabelBox{fill:hsl(78.1578947368, 58.4615384615%, 84.5098039216%);opacity:0.7;background-color:hsl(78.1578947368, 58.4615384615%, 84.5098039216%);}#my-svg .relationshipLabelBox rect{opacity:0.5;}#my-svg .relationshipLine{stroke:#000000;}#my-svg .entityTitleText{text-anchor:middle;font-size:18px;fill:#000000;}#my-svg #MD_PARENT_START{fill:#f5f5f5!important;stroke:#000000!important;stroke-width:1;}#my-svg #MD_PARENT_END{fill:#f5f5f5!important;stroke:#000000!important;stroke-width:1;}#my-svg :root{--mermaid-font-family:"trebuchet ms",verdana,arial,sans-serif;}</style><g/><defs><marker orient="auto" markerHeight="240" markerWidth="190" refY="7" refX="0" id="MD_PARENT_START"><path d="M 18,7 L9,13 L1,7 L9,1 Z"/></marker></defs><defs><marker orient="auto" markerHeight="28" markerWidth="20" refY="7" refX="19" id="MD_PARENT_END"><path d="M 18,7 L9,13 L1,7 L9,1 Z"/></marker></defs><defs><marker orient="auto" markerHeight="18" markerWidth="18" refY="9" refX="0" id="ONLY_ONE_START"><path d="M9,0 L9,18 M15,0 L15,18" fill="none" stroke="gray"/></marker></defs><defs><marker orient="auto" markerHeight="18" markerWidth="18" refY="9" refX="18" id="ONLY_ONE_END"><path d="M3,0 L3,18 M9,0 L9,18" fill="none" stroke="gray"/></marker></defs><defs><marker orient="auto" markerHeight="18" markerWidth="30" refY="9" refX="0" id="ZERO_OR_ONE_START"><circle r="6" cy="9" cx="21" fill="white" stroke="gray"/><path d="M9,0 L9,18" fill="none" stroke="gray"/></marker></defs><defs><marker orient="auto" markerHeight="18" markerWidth="30" refY="9" refX="30" id="ZERO_OR_ONE_END"><circle r="6" cy="9" cx="9" fill="white" stroke="gray"/><path d="M21,0 L21,18" fill="none" stroke="gray"/></marker></defs><defs><marker orient="auto" markerHeight="36" markerWidth="45" refY="18" refX="18" id="ONE_OR_MORE_START"><path d="M0,18 Q 18,0 36,18 Q 18,36 0,18 M42,9 L42,27" fill="none" stroke="gray"/></marker></defs><defs><marker orient="auto" markerHeight="36" markerWidth="45" refY="18" refX="27" id="ONE_OR_MORE_END"><path d="M3,9 L3,27 M9,18 Q27,0 45,18 Q27,36 9,18" fill="none" stroke="gray"/></marker></defs><defs><marker orient="auto" markerHeight="36" markerWidth="57" refY="18" refX="18" id="ZERO_OR_MORE_START"><circle r="6" cy="18" cx="48" fill="white" stroke="gray"/><path d="M0,18 Q18,0 36,18 Q18,36 0,18" fill="none" stroke="gray"/></marker></defs><defs><marker orient="auto" markerHeight="36" markerWidth="57" refY="18" refX="39" id="ZERO_OR_MORE_END"><circle r="6" cy="18" cx="9" fill="white" stroke="gray"/><path d="M21,18 Q39,0 57,18 Q39,36 21,18" fill="none" stroke="gray"/></marker></defs><path style="stroke: gray; fill: none;" marker-start="url(#ZERO_OR_MORE_START)" marker-end="url(#ZERO_OR_MORE_END)" d="M65.38238610247302,92.091796875L60.54000925206085,100.42513020833333C55.69763240164868,108.75846354166667,46.01287870082434,125.42513020833333,46.01287870082434,142.091796875C46.01287870082434,158.75846354166666,55.69763240164868,175.42513020833334,60.54000925206085,183.75846354166666L65.38238610247302,192.091796875" class="er relationshipLine"/><path style="stroke: gray; fill: none;" marker-start="url(#ZERO_OR_MORE_START)" marker-end="url(#ZERO_OR_MORE_END)" d="M36.328125,80.63044084821428L15.494791666666666,90.87400018601188C-5.338541666666667,101.11755952380952,-47.005208333333336,121.60467819940476,-67.83854166666667,146.18922061011904C-88.671875,170.77376302083334,-88.671875,199.45572916666666,-88.671875,228.1376953125C-88.671875,256.8196614583333,-88.671875,285.5016276041667,-70.55989583333333,309.8818219866071C-52.447916666666664,334.2620163690476,-16.223958333333332,354.34043898809523,1.8880208333333333,364.37965029761904L20,374.41886160714284" class="er relationshipLine"/><path style="stroke: gray; fill: none;" marker-start="url(#ZERO_OR_MORE_START)" marker-end="url(#ZERO_OR_MORE_END)" d="M107.27386389752698,192.091796875L112.11624074793916,183.75846354166666C116.95861759835132,175.42513020833334,126.64337129917567,158.75846354166666,126.64337129917567,142.091796875C126.64337129917567,125.42513020833333,116.95861759835132,108.75846354166667,112.11624074793916,100.42513020833333L107.27386389752698,92.091796875" class="er relationshipLine"/><path style="stroke: gray; fill: none;" marker-start="url(#ZERO_OR_MORE_START)" marker-end="url(#ZERO_OR_MORE_END)" d="M65.38238610247302,264.18359375L60.54000925206085,272.5169270833333C55.69763240164868,280.8502604166667,46.01287870082434,297.5169270833333,45.46603449646028,314.18359375C44.919190292096225,330.8502604166667,53.51025558419244,347.5169270833333,57.80578823024055,355.8502604166667L62.10132087628866,364.18359375" class="er relationshipLine"/><path style="stroke: gray; fill: none;" marker-start="url(#ZERO_OR_ONE_START)" marker-end="url(#ONLY_ONE_END)" d="M110.55492912371133,364.18359375L114.85046176975943,355.8502604166667C119.14599441580755,347.5169270833333,127.73705970790377,330.8502604166667,127.19021550353972,314.18359375C126.64337129917567,297.5169270833333,116.95861759835132,280.8502604166667,112.11624074793916,272.5169270833333L107.27386389752698,264.18359375" class="er relationshipLine"/><path style="stroke: gray; fill: none;" marker-start="url(#ZERO_OR_ONE_START)" marker-end="url(#ONLY_ONE_END)" d="M152.65625,374.41886160714284L170.76822916666666,364.37965029761904C188.88020833333334,354.34043898809523,225.10416666666666,334.2620163690476,243.21614583333334,309.8818219866071C261.328125,285.5016276041667,261.328125,256.8196614583333,261.328125,228.1376953125C261.328125,199.45572916666666,261.328125,170.77376302083334,240.49479166666666,146.18922061011904C219.66145833333334,121.60467819940476,177.99479166666666,101.11755952380952,157.16145833333334,90.87400018601188L136.328125,80.63044084821428" class="er relationshipLine"/><g transform="translate(36.328125,20 )" id="entity-Hospital-bc2aee91-c78b-558b-9454-08955a7faf3f"><rect height="72.091796875" width="100" y="0" x="0" class="er entityBox"/><text style="dominant-baseline: middle; text-anchor: middle; font-size: 12px;" transform="translate(50,12)" y="0" x="0" id="text-entity-Hospital-bc2aee91-c78b-558b-9454-08955a7faf3f" class="er entityLabel">Hospital</text><rect height="26" width="37.697916666666664" y="24" x="0" class="er attributeBoxOdd"/><text style="dominant-baseline: middle; font-size: 10.2px;" transform="translate(5,37)" y="0" x="0" id="text-entity-Hospital-bc2aee91-c78b-558b-9454-08955a7faf3f-attr-1-type" class="er entityLabel">String</text><rect height="26" width="36.135416666666664" y="24" x="37.697916666666664" class="er attributeBoxOdd"/><text style="dominant-baseline: middle; font-size: 10.2px;" transform="translate(42.697916666666664,37)" y="0" x="0" id="text-entity-Hospital-bc2aee91-c78b-558b-9454-08955a7faf3f-attr-1-name" class="er entityLabel">id</text><rect height="26" width="26.166666666666668" y="24" x="73.83333333333333" class="er attributeBoxOdd"/><text style="dominant-baseline: middle; font-size: 10.2px;" transform="translate(78.83333333333333,37)" y="0" x="0" id="text-entity-Hospital-bc2aee91-c78b-558b-9454-08955a7faf3f-attr-1-comment" class="er entityLabel">🗝️</text><rect height="22.091796875" width="37.697916666666664" y="50" x="0" class="er attributeBoxEven"/><text style="dominant-baseline: middle; font-size: 10.2px;" transform="translate(5,61.0458984375)" y="0" x="0" id="text-entity-Hospital-bc2aee91-c78b-558b-9454-08955a7faf3f-attr-2-type" class="er entityLabel">String</text><rect height="22.091796875" width="36.135416666666664" y="50" x="37.697916666666664" class="er attributeBoxEven"/><text style="dominant-baseline: middle; font-size: 10.2px;" transform="translate(42.697916666666664,61.0458984375)" y="0" x="0" id="text-entity-Hospital-bc2aee91-c78b-558b-9454-08955a7faf3f-attr-2-name" class="er entityLabel">name</text><rect height="22.091796875" width="26.166666666666668" y="50" x="73.83333333333333" class="er attributeBoxEven"/><text style="dominant-baseline: middle; font-size: 10.2px;" transform="translate(78.83333333333333,61.0458984375)" y="0" x="0" id="text-entity-Hospital-bc2aee91-c78b-558b-9454-08955a7faf3f-attr-2-comment" class="er entityLabel"/></g><g transform="translate(36.328125,192.091796875 )" id="entity-Doctor-13695b2e-2b51-5bd3-9f02-34acc210c3b5"><rect height="72.091796875" width="100" y="0" x="0" class="er entityBox"/><text style="dominant-baseline: middle; text-anchor: middle; font-size: 12px;" transform="translate(50,12)" y="0" x="0" id="text-entity-Doctor-13695b2e-2b51-5bd3-9f02-34acc210c3b5" class="er entityLabel">Doctor</text><rect height="26" width="37.697916666666664" y="24" x="0" class="er attributeBoxOdd"/><text style="dominant-baseline: middle; font-size: 10.2px;" transform="translate(5,37)" y="0" x="0" id="text-entity-Doctor-13695b2e-2b51-5bd3-9f02-34acc210c3b5-attr-1-type" class="er entityLabel">String</text><rect height="26" width="36.135416666666664" y="24" x="37.697916666666664" class="er attributeBoxOdd"/><text style="dominant-baseline: middle; font-size: 10.2px;" transform="translate(42.697916666666664,37)" y="0" x="0" id="text-entity-Doctor-13695b2e-2b51-5bd3-9f02-34acc210c3b5-attr-1-name" class="er entityLabel">id</text><rect height="26" width="26.166666666666668" y="24" x="73.83333333333333" class="er attributeBoxOdd"/><text style="dominant-baseline: middle; font-size: 10.2px;" transform="translate(78.83333333333333,37)" y="0" x="0" id="text-entity-Doctor-13695b2e-2b51-5bd3-9f02-34acc210c3b5-attr-1-comment" class="er entityLabel">🗝️</text><rect height="22.091796875" width="37.697916666666664" y="50" x="0" class="er attributeBoxEven"/><text style="dominant-baseline: middle; font-size: 10.2px;" transform="translate(5,61.0458984375)" y="0" x="0" id="text-entity-Doctor-13695b2e-2b51-5bd3-9f02-34acc210c3b5-attr-2-type" class="er entityLabel">String</text><rect height="22.091796875" width="36.135416666666664" y="50" x="37.697916666666664" class="er attributeBoxEven"/><text style="dominant-baseline: middle; font-size: 10.2px;" transform="translate(42.697916666666664,61.0458984375)" y="0" x="0" id="text-entity-Doctor-13695b2e-2b51-5bd3-9f02-34acc210c3b5-attr-2-name" class="er entityLabel">name</text><rect height="22.091796875" width="26.166666666666668" y="50" x="73.83333333333333" class="er attributeBoxEven"/><text style="dominant-baseline: middle; font-size: 10.2px;" transform="translate(78.83333333333333,61.0458984375)" y="0" x="0" id="text-entity-Doctor-13695b2e-2b51-5bd3-9f02-34acc210c3b5-attr-2-comment" class="er entityLabel"/></g><g transform="translate(20,364.18359375 )" id="entity-Schedule-c029d133-7a07-519f-a43f-13584954d711"><rect height="94" width="132.65625" y="0" x="0" class="er entityBox"/><text style="dominant-baseline: middle; text-anchor: middle; font-size: 12px;" transform="translate(66.328125,12)" y="0" x="0" id="text-entity-Schedule-c029d133-7a07-519f-a43f-13584954d711" class="er entityLabel">Schedule</text><rect height="26" width="53.671875" y="24" x="0" class="er attributeBoxOdd"/><text style="dominant-baseline: middle; font-size: 10.2px;" transform="translate(5,37)" y="0" x="0" id="text-entity-Schedule-c029d133-7a07-519f-a43f-13584954d711-attr-1-type" class="er entityLabel">String</text><rect height="26" width="53.984375" y="24" x="53.671875" class="er attributeBoxOdd"/><text style="dominant-baseline: middle; font-size: 10.2px;" transform="translate(58.671875,37)" y="0" x="0" id="text-entity-Schedule-c029d133-7a07-519f-a43f-13584954d711-attr-1-name" class="er entityLabel">id</text><rect height="26" width="25" y="24" x="107.65625" class="er attributeBoxOdd"/><text style="dominant-baseline: middle; font-size: 10.2px;" transform="translate(112.65625,37)" y="0" x="0" id="text-entity-Schedule-c029d133-7a07-519f-a43f-13584954d711-attr-1-comment" class="er entityLabel">🗝️</text><rect height="22" width="53.671875" y="50" x="0" class="er attributeBoxEven"/><text style="dominant-baseline: middle; font-size: 10.2px;" transform="translate(5,61)" y="0" x="0" id="text-entity-Schedule-c029d133-7a07-519f-a43f-13584954d711-attr-2-type" class="er entityLabel">DateTime</text><rect height="22" width="53.984375" y="50" x="53.671875" class="er attributeBoxEven"/><text style="dominant-baseline: middle; font-size: 10.2px;" transform="translate(58.671875,61)" y="0" x="0" id="text-entity-Schedule-c029d133-7a07-519f-a43f-13584954d711-attr-2-name" class="er entityLabel">startTime</text><rect height="22" width="25" y="50" x="107.65625" class="er attributeBoxEven"/><text style="dominant-baseline: middle; font-size: 10.2px;" transform="translate(112.65625,61)" y="0" x="0" id="text-entity-Schedule-c029d133-7a07-519f-a43f-13584954d711-attr-2-comment" class="er entityLabel"/><rect height="22" width="53.671875" y="72" x="0" class="er attributeBoxOdd"/><text style="dominant-baseline: middle; font-size: 10.2px;" transform="translate(5,83)" y="0" x="0" id="text-entity-Schedule-c029d133-7a07-519f-a43f-13584954d711-attr-3-type" class="er entityLabel">DateTime</text><rect height="22" width="53.984375" y="72" x="53.671875" class="er attributeBoxOdd"/><text style="dominant-baseline: middle; font-size: 10.2px;" transform="translate(58.671875,83)" y="0" x="0" id="text-entity-Schedule-c029d133-7a07-519f-a43f-13584954d711-attr-3-name" class="er entityLabel">endTime</text><rect height="22" width="25" y="72" x="107.65625" class="er attributeBoxOdd"/><text style="dominant-baseline: middle; font-size: 10.2px;" transform="translate(112.65625,83)" y="0" x="0" id="text-entity-Schedule-c029d133-7a07-519f-a43f-13584954d711-attr-3-comment" class="er entityLabel"/></g><rect height="14" width="39.796875" y="135.09181213378906" x="26.11444091796875" class="er relationshipLabelBox"/><text style="text-anchor: middle; dominant-baseline: middle; font-size: 12px;" y="142.09181213378906" x="46.01287841796875" id="rel1" class="er relationshipLabel">doctors</text><rect height="14" width="52.09375" y="214.57162475585938" x="-114.7093734741211" class="er relationshipLabelBox"/><text style="text-anchor: middle; dominant-baseline: middle; font-size: 12px;" y="221.57162475585938" x="-88.6624984741211" id="rel2" class="er relationshipLabel">schedules</text><rect height="14" width="47.421875" y="135.091796875" x="102.93243408203125" class="er relationshipLabelBox"/><text style="text-anchor: middle; dominant-baseline: middle; font-size: 12px;" y="142.091796875" x="126.64337158203125" id="rel3" class="er relationshipLabel">hospitals</text><rect height="14" width="52.09375" y="306.63812255859375" x="19.44036865234375" class="er relationshipLabelBox"/><text style="text-anchor: middle; dominant-baseline: middle; font-size: 12px;" y="313.63812255859375" x="45.48724365234375" id="rel4" class="er relationshipLabel">schedules</text><rect height="14" width="34.9375" y="306.63812255859375" x="109.70025634765625" class="er relationshipLabelBox"/><text style="text-anchor: middle; dominant-baseline: middle; font-size: 12px;" y="313.63812255859375" x="127.16900634765625" id="rel5" class="er relationshipLabel">doctor</text><rect height="14" width="42.5625" y="214.57164001464844" x="240.03750610351562" class="er relationshipLabelBox"/><text style="text-anchor: middle; dominant-baseline: middle; font-size: 12px;" y="221.57164001464844" x="261.3187561035156" id="rel6" class="er relationshipLabel">hospital</text></svg>